<svg width="263" height="236" viewBox="0 0 263 236" fill="none" xmlns="http://www.w3.org/2000/svg">
<path fill-rule="evenodd" clip-rule="evenodd" d="M238.039 179.476C239.06 180.043 239.854 180.723 240.42 181.517C241.441 180.837 242.688 180.383 243.935 180.156C245.182 179.816 246.43 179.93 247.677 180.383C249.944 181.063 251.532 182.878 251.985 185.145C252.325 186.279 252.325 187.413 252.099 188.547L251.418 192.061L257.995 190.588L257.654 196.71C257.428 201.019 254.026 203.4 250.171 204.307L244.389 205.554C242.121 206.121 239.854 205.894 238.153 204.76C237.132 206.461 235.658 207.708 233.618 208.275C233.277 208.275 232.824 208.388 232.37 208.388C230.443 208.615 228.742 208.048 227.495 206.914C226.361 208.729 224.66 209.976 222.506 210.543L213.209 212.583L213.889 206.234C213.549 206.688 213.322 207.141 212.982 207.595C209.921 211.676 205.953 214.511 200.964 215.645C197.449 216.438 193.821 216.325 190.646 214.624C190.533 214.511 184.977 218.933 184.07 219.16L178.174 220.52C174.546 221.314 170.578 221.767 166.836 221.087C166.269 220.974 165.589 220.747 165.022 220.634C164.795 221.2 164.455 221.767 164.115 222.221C162.981 223.808 161.394 224.715 159.58 225.169C157.765 225.622 155.951 225.396 154.251 224.489C152.437 223.468 151.189 221.881 150.736 219.953C150.282 217.912 150.736 215.872 151.983 214.284C153.117 212.81 154.704 211.79 156.518 211.336C156.632 211.336 156.745 211.336 156.858 211.336C156.518 208.729 156.858 206.121 157.765 203.74C158.446 201.812 159.353 200.112 160.6 198.524L140.985 202.946L3 234.126L15.0184 209.409L15.1318 209.295C15.9255 207.935 16.0388 204.42 16.1522 202.606L16.0388 148.296C16.0388 148.07 16.0388 147.956 16.0388 147.729L4.92748 139.453L6.85496 137.185L6.0613 137.298L5.38101 90.4718L59.1237 79.1337C57.3096 52.7159 70.1217 27.3185 92.9114 13.0324C109.125 2.8281 128.74 -0.459956 147.448 3.84853C166.156 8.15702 182.369 19.6085 192.574 35.9354C195.295 40.2439 197.562 44.8926 199.263 49.768L260.942 36.8425L259.582 82.9887L256.067 83.7823C256.067 85.2563 256.067 86.7303 256.067 88.2042C256.18 91.9458 256.18 95.574 256.294 99.3156C256.294 103.171 256.294 107.139 256.294 110.994C256.407 112.695 256.521 116.89 255.84 118.477L255.047 120.518L254.253 120.745C255.16 122.332 255.84 124.033 256.18 125.96C256.861 130.609 256.294 135.824 256.294 140.586C256.294 145.122 256.294 149.77 256.294 154.419C256.294 161.108 256.18 162.356 251.985 167.911C246.203 175.508 244.956 177.662 238.039 179.476Z" fill="#FEFEFE" stroke="#FEFEFE" stroke-width="2.26763"/>
<path fill-rule="evenodd" clip-rule="evenodd" d="M10.9365 95.007L11.5034 128.001L251.872 76.2991L252.665 44.3256L10.9365 95.007Z" fill="#ED3237" stroke="#96989A" stroke-width="2.26763"/>
<path fill-rule="evenodd" clip-rule="evenodd" d="M120.236 69.8363C122.05 64.5074 127.492 61.6728 132.254 62.2397L163.094 37.9761L138.604 65.4144C138.717 65.6412 138.83 65.7545 138.83 65.8679L163.548 60.6524L161.507 57.3643L161.167 58.4981L160.6 57.4777L160.826 56.3439L161.507 55.8904L164.455 60.539L165.702 60.1989H165.588C165.475 59.9721 165.362 59.632 165.248 59.4052C165.022 59.0651 164.908 58.7249 164.908 58.3848C164.795 58.3848 164.795 58.2714 164.795 58.2714C164.795 58.158 164.795 58.158 164.795 58.0446L164.001 54.4164L164.681 53.9629L165.588 58.158L165.475 58.0446C165.475 57.8179 165.475 57.7045 165.588 57.4777C165.588 57.3643 165.702 57.251 165.815 57.1376C166.042 57.0242 166.382 56.9108 166.609 57.0242C166.949 57.0242 167.176 57.251 167.516 57.4777C167.743 57.7045 168.083 58.0446 168.31 58.4981C168.536 58.8383 168.763 59.1784 168.877 59.5186L191.099 54.8699C189.512 49.541 187.131 44.4389 184.07 39.4501C165.362 9.74419 126.132 0.673688 96.4259 19.3816C74.77 32.874 64.1122 57.251 67.0601 80.9476L72.6158 79.8138V79.3603L76.5841 78.9068L120.236 69.8363ZM126.472 66.8884L133.842 65.6412L133.502 67.0017L121.483 69.4961C122.73 65.8679 126.925 63.2602 131.007 63.2602L126.472 66.8884ZM62.9784 81.8547C59.8037 56.4573 71.1418 30.3796 94.1582 15.8668C125.905 -3.97495 167.629 5.66247 187.584 37.2958C190.872 42.6248 193.367 48.2938 195.068 54.0763L255.046 41.491L254.026 78.2265L9.46241 130.609L8.89551 93.1928L62.9784 81.8547ZM166.496 60.0855L168.083 59.7453C167.969 59.5186 167.856 59.2918 167.743 58.9517C167.516 58.6115 167.176 58.3848 166.949 58.158C166.722 58.0446 166.496 58.0446 166.269 58.2714C166.042 58.3848 165.929 58.4981 165.929 58.8383C166.042 59.0651 166.155 59.4052 166.382 59.8587C166.382 59.9721 166.496 59.9721 166.496 60.0855ZM10.9364 95.3471L11.5033 128.001L251.872 76.299L252.665 44.5522L10.9364 95.3471Z" fill="#201E1E"/>
<path fill-rule="evenodd" clip-rule="evenodd" d="M100.848 23.3501L101.642 22.8966L108.672 35.3685L107.878 35.8221L100.848 23.3501ZM98.2407 24.9375L98.921 24.4839L105.724 35.4819L105.044 35.9354L98.2407 24.9375ZM95.8597 26.5248L96.54 26.0713L104.023 36.6157L103.343 37.0693L95.8597 26.5248ZM72.3897 77.0929V76.1858L85.2018 75.6189V76.4126L72.3897 77.0929ZM72.2764 73.578V72.7844L85.0885 72.8977V73.8048L72.2764 73.578ZM72.2764 70.6301V69.8365L85.2018 70.6301L85.0885 71.4238L72.2764 70.6301ZM72.6165 67.3421L72.7299 66.435L85.542 68.0224L85.4286 68.816L72.6165 67.3421ZM72.9567 64.1674L73.1834 63.3737L85.7687 65.528L85.6554 66.435L72.9567 64.1674ZM73.6369 60.7659L73.7503 59.9723L88.3765 63.3737L88.1497 64.2808L73.6369 60.7659ZM74.3172 57.9314L74.544 57.0244L86.9026 60.6526L86.6758 61.5596L74.3172 57.9314ZM75.451 54.3032L75.6778 53.5095L87.8096 58.0448L87.4695 58.8385L75.451 54.3032ZM76.5849 51.3553L76.925 50.5616L88.7167 55.7772L88.3765 56.5708L76.5849 51.3553ZM77.9454 48.1806L78.399 47.387L89.8505 53.2828L89.3969 54.0765L77.9454 48.1806ZM79.306 45.5729L79.7595 44.7792L90.8709 51.2419L90.4174 52.0356L79.306 45.5729ZM80.78 43.0785L81.2335 42.2848L92.1181 49.2011L91.6646 49.9947L80.78 43.0785ZM82.4807 40.3573L83.0476 39.677L93.4787 47.1602L93.0251 47.9539L82.4807 40.3573ZM84.5215 37.6362L85.0885 36.9559L96.7667 46.3665L96.1998 47.0468L84.5215 37.6362ZM86.3356 35.2552L87.0159 34.6883L96.54 43.3052L95.9731 43.8721L86.3356 35.2552ZM88.7167 32.8741L89.2836 32.3072L98.3541 41.3777L97.7872 42.058L88.7167 32.8741ZM90.9843 30.6065L91.5512 30.0396L100.168 39.677L99.4879 40.2439L90.9843 30.6065ZM93.592 28.3389L94.2723 27.8854L102.209 37.9763L101.529 38.5432L93.592 28.3389ZM94.9526 69.1562L94.2723 69.6097L90.5308 63.7139L90.1906 64.7343L89.6237 63.7139L89.8505 62.6934L90.5308 62.2399L94.9526 69.1562ZM97.447 67.6822C96.9935 67.909 96.54 68.0224 96.0864 67.7956C95.6329 67.5688 95.1794 67.2287 94.8392 66.5484L92.7984 63.3737C92.4582 62.8068 92.2315 62.2399 92.3449 61.673C92.3449 61.2195 92.5716 60.8793 93.0251 60.5392C93.4787 60.3124 93.9322 60.199 94.3857 60.4258C94.8392 60.6526 95.2928 60.9927 95.6329 61.673L97.5604 64.8477C98.0139 65.4146 98.2407 65.9815 98.1273 66.5484C98.1273 67.0019 97.9005 67.3421 97.447 67.6822ZM96.8801 66.7752C97.1069 66.5484 97.2203 66.435 97.2203 66.0949C97.2203 65.8681 97.1069 65.6413 96.8801 65.3012L94.9526 62.1265C94.7259 61.7864 94.4991 61.5596 94.2723 61.4462C94.0456 61.3329 93.8188 61.3329 93.592 61.4462C93.3653 61.673 93.2519 61.7864 93.2519 62.1265C93.2519 62.3533 93.3653 62.6934 93.4787 63.0336L95.5195 66.0949C95.7463 66.435 95.9731 66.6618 96.1998 66.7752C96.4266 66.8885 96.6533 66.8885 96.8801 66.7752ZM103.91 21.6494L104.703 21.3093L110.259 32.8741L109.465 33.2143L103.91 21.6494ZM106.631 20.4022L107.425 20.0621L112.3 31.9671L111.506 32.3072L106.631 20.4022ZM109.239 19.2684L110.146 18.9283L114.568 31.06L113.774 31.4002L109.239 19.2684ZM112.3 18.248L113.094 17.9078L116.835 30.2664L116.042 30.4931L112.3 18.248ZM115.588 17.2275L116.382 17.0008L119.443 29.4727L118.649 29.6995L115.588 17.2275ZM118.423 16.5472L119.33 16.3205L121.937 30.2664L121.144 30.3798L118.423 16.5472ZM121.824 15.9803L122.618 15.867L124.318 28.679L123.411 28.7924L121.824 15.9803ZM124.885 15.6402L125.792 15.5268L126.699 28.3389L125.906 28.4523L124.885 15.6402ZM128.4 15.4134L129.194 15.3L129.421 28.2255H128.513L128.4 15.4134ZM131.348 15.3L132.142 15.4134L131.688 28.2255H130.781L131.348 15.3ZM134.069 15.5268H134.976L133.729 28.3389H132.822L134.069 15.5268ZM137.244 15.7536L138.038 15.867L136.223 28.679L135.316 28.5657L137.244 15.7536ZM140.645 16.3205L141.439 16.4339L138.491 30.8333L137.584 30.6065L140.645 16.3205ZM143.48 16.8874L144.387 17.1141L141.099 29.5861L140.192 29.3593L143.48 16.8874ZM146.314 17.6811L147.221 17.9078L143.366 30.2664L142.573 30.0396L146.314 17.6811ZM149.376 18.5881L150.169 18.9283L145.634 31.06L144.84 30.7199L149.376 18.5881ZM152.55 19.8353L153.344 20.1754L148.242 31.9671L147.448 31.627L152.55 19.8353ZM155.271 21.0825L156.065 21.4226L150.283 32.9875L149.489 32.534L155.271 21.0825ZM158.219 22.6698L159.013 23.1234L152.55 34.2347L151.757 33.7812L158.219 22.6698ZM160.941 24.2572L161.734 24.7107L154.138 36.5024L153.457 36.0488L160.941 24.2572ZM163.888 26.1847L164.569 26.6382L156.859 37.0693L156.179 36.5024L163.888 26.1847ZM166.269 27.8854L166.95 28.4523L158.673 38.4298L158.106 37.8629L166.269 27.8854ZM169.104 30.3798L169.671 30.9467L160.827 40.2439L160.147 39.677L169.104 30.3798ZM171.372 32.534L171.939 33.2143L162.528 42.058L161.961 41.3777L171.372 32.534ZM173.753 35.1418L174.32 35.7087L164.342 43.9855L163.775 43.3052L173.753 35.1418ZM175.567 37.4094L176.134 38.0897L165.816 45.7996L165.362 45.1193L175.567 37.4094ZM177.381 39.677L177.834 40.4707L167.177 47.7271L166.723 47.0468L177.381 39.677ZM179.082 42.2848L179.535 43.0785L168.537 49.768L168.084 48.9743L179.082 42.2848ZM180.896 45.3461L181.349 46.0264L169.898 52.0356L169.558 51.3553L180.896 45.3461ZM182.256 47.9539L182.596 48.7475L168.877 55.0969L168.424 54.3032L182.256 47.9539ZM183.617 51.0152L183.957 51.8088L171.939 56.5708L171.598 55.7772L183.617 51.0152ZM184.751 53.9631L184.977 54.7567L172.846 58.8385L172.505 58.0448L184.751 53.9631ZM152.777 45.4595L152.097 45.913L148.355 40.0172L148.128 41.0376L147.448 40.0172L147.675 38.9967L148.469 38.5432L152.777 45.4595ZM155.271 43.9855C155.045 44.2123 154.818 44.2123 154.478 44.2123C154.251 44.2123 153.911 44.0989 153.684 43.8721C153.344 43.7588 153.117 43.4186 152.89 43.0785H152.777L153.571 42.6249V42.7383C153.684 42.9651 153.911 43.0785 154.138 43.1918C154.364 43.1918 154.478 43.1918 154.705 43.0785C154.931 42.9651 155.045 42.7383 155.045 42.3982C155.045 42.1714 154.931 41.8313 154.591 41.4911L154.251 40.8108C154.024 40.4707 153.798 40.2439 153.571 40.1306C153.344 39.9038 153.004 39.9038 152.89 40.1306C152.664 40.1306 152.664 40.2439 152.55 40.4707C152.55 40.5841 152.55 40.8108 152.55 41.0376L151.87 41.3777L149.602 37.7495L152.097 36.1622L152.664 37.1826L150.85 38.2031L151.87 39.7904C151.87 39.677 151.983 39.5636 151.983 39.4503C152.097 39.3369 152.21 39.2235 152.324 39.1101C152.55 38.9967 152.89 38.8834 153.117 38.8834C153.457 38.9967 153.798 39.1101 154.024 39.3369C154.364 39.677 154.705 40.0172 154.931 40.4707L155.271 41.0376C155.612 41.4911 155.838 41.8313 155.838 42.2848C155.952 42.6249 155.952 42.9651 155.838 43.3052C155.725 43.532 155.612 43.8721 155.271 43.9855ZM124.772 40.9242L124.092 41.2644L120.35 35.3685L120.123 36.5024L119.443 35.4819L119.783 34.3481L120.463 33.8946L124.772 40.9242ZM127.153 39.4503C126.926 39.677 126.586 39.677 126.359 39.677C126.019 39.677 125.792 39.5636 125.452 39.4503C125.112 39.2235 124.885 38.9967 124.545 38.5432L125.339 38.0897C125.452 38.3165 125.566 38.4298 125.679 38.5432C125.906 38.6566 126.019 38.6566 126.132 38.6566C126.359 38.6566 126.473 38.6566 126.586 38.5432C126.813 38.4298 126.926 38.2031 126.926 37.9763C127.04 37.7495 126.926 37.4094 126.699 37.0693L126.586 36.8425C126.359 36.5024 126.132 36.2756 125.906 36.1622C125.679 36.0488 125.452 36.0488 125.225 36.2756L124.885 36.389L124.318 35.4819L124.659 35.2552C124.772 35.1418 124.885 35.0284 124.885 34.8016C124.885 34.5749 124.772 34.2347 124.659 34.008L124.545 33.7812C124.318 33.4411 124.092 33.3277 123.978 33.2143C123.751 33.1009 123.525 33.2143 123.298 33.3277C123.185 33.3277 123.071 33.4411 123.071 33.5544C123.071 33.6678 122.958 33.8946 123.071 34.008C123.071 34.2347 123.071 34.3481 123.185 34.5749L122.504 35.0284C122.278 34.5749 122.164 34.2347 122.164 33.8946C122.051 33.5544 122.164 33.2143 122.164 32.9875C122.278 32.7608 122.504 32.534 122.731 32.4206C123.185 32.0805 123.525 32.0805 123.978 32.1939C124.432 32.4206 124.772 32.7608 125.225 33.3277V33.4411C125.452 33.7812 125.566 34.1213 125.679 34.4615C125.679 34.8016 125.566 35.1418 125.452 35.3685C125.792 35.3685 126.019 35.3685 126.359 35.5953C126.699 35.8221 127.04 36.1622 127.266 36.6157L127.38 36.7291C127.606 37.0693 127.833 37.4094 127.833 37.8629C127.947 38.2031 127.947 38.5432 127.833 38.77C127.72 39.1101 127.493 39.3369 127.153 39.4503ZM111.506 44.7792L110.826 45.2327L107.084 39.3369L106.858 40.3573L106.177 39.3369L106.518 38.3165L107.198 37.8629L111.506 44.7792ZM111.96 43.3052L111.733 38.9967C111.62 38.77 111.62 38.5432 111.506 38.3165C111.506 38.0897 111.393 37.8629 111.28 37.6362C111.053 37.4094 110.939 37.1826 110.713 37.1826C110.486 37.0693 110.259 37.0693 110.032 37.1826C109.919 37.296 109.806 37.5228 109.692 37.7495C109.692 37.9763 109.806 38.3165 109.919 38.6566L109.239 39.1101C109.012 38.6566 108.899 38.2031 108.899 37.8629C108.785 37.5228 108.785 37.1826 108.899 36.9559C109.012 36.6157 109.239 36.389 109.465 36.2756C109.806 36.0488 110.032 36.0488 110.372 36.0488C110.599 36.0488 110.939 36.1622 111.166 36.389C111.506 36.5024 111.733 36.8425 111.96 37.1826V37.296C112.187 37.5228 112.3 37.7495 112.413 38.0897C112.413 38.4298 112.527 38.6566 112.527 38.9967L112.867 42.6249L114.681 41.4911L115.248 42.3982L112.527 44.2123L111.96 43.3052ZM137.697 40.6975L137.017 41.0376L133.276 35.1418L132.935 36.2756L132.368 35.2552L132.595 34.1213L133.276 33.6678L137.697 40.6975ZM140.872 38.6566L140.192 37.6362L138.038 38.8834L137.471 38.0897L135.997 31.9671L136.677 31.627L138.264 37.5228L139.625 36.7291L138.264 34.5749L138.945 34.1213L140.305 36.389L140.759 36.0488L141.212 36.8425L140.759 37.1826L141.439 38.3165L140.872 38.6566ZM102.096 54.7567L101.415 55.2103L97.6738 49.3144L97.3336 50.3349L96.7667 49.3144L96.9935 48.294L97.6738 47.8405L102.096 54.7567ZM104.363 53.3962L103.683 53.7363L99.9414 47.8405L99.6013 48.9743L99.0344 47.9539L99.2611 46.82L99.9414 46.3665L104.363 53.3962Z" fill="#201E1E"/>
<path fill-rule="evenodd" clip-rule="evenodd" d="M129.08 65.8683L134.636 64.9612L134.182 67.0021L136.677 66.5485L157.766 43.0786L129.08 65.8683Z" fill="#3E4095"/>
<path fill-rule="evenodd" clip-rule="evenodd" d="M235.999 84.2362C237.586 84.0094 240.194 83.896 242.348 86.0503L247.11 89.9052V113.489L239.627 114.849C243.255 119.498 247.563 123.126 247.337 128.568C247.11 133.104 247.11 137.979 247.11 142.628C247.11 147.276 247.223 152.038 247.11 156.8C247.11 160.202 244.049 163.036 242.008 165.531C238.606 169.612 238.947 170.066 233.731 171.426C230.67 172.107 211.962 176.529 210.261 176.188C208.447 175.735 202.778 170.973 201.984 170.859C199.943 172.9 197.789 176.302 195.295 178.683C191.667 182.198 191.213 182.424 185.317 183.558L172.845 186.393C171.031 186.846 169.217 187.186 167.516 187.413C164.568 187.753 161.394 184.579 159.466 183.218L158.786 182.765C160.373 186.619 161.734 187.753 162.528 188.887L160.487 189.341L143.479 193.309L140.645 193.876C138.491 194.443 137.924 192.742 137.243 191.155L131.008 177.209L132.708 195.917L104.476 201.926C105.383 200.112 106.064 198.638 106.857 196.597L109.238 189.794L109.125 148.523C109.125 146.936 108.898 145.689 108.671 143.421L101.642 159.181C99.7143 163.716 98.8072 164.51 99.034 169.499L99.3741 192.969L102.776 202.379L72.276 209.182C74.0901 205.327 76.5845 201.246 76.9246 196.824C77.038 194.556 77.038 192.629 77.038 190.474L77.2648 168.932C77.2648 167.005 77.2648 166.211 76.6979 165.19C75.4507 163.15 74.0901 161.562 72.5028 159.408C71.4823 158.274 70.0084 157.027 70.1218 158.841L69.895 170.519L69.1013 196.597C68.6478 199.318 67.8541 200.565 66.9471 202.039C65.0196 204.647 62.752 207.595 60.2576 210.77C59.5773 211.677 59.4639 211.79 58.7836 211.904L15.1318 221.768L15.6987 220.861C17.3995 219.16 18.5333 216.212 19.7805 214.058C21.8213 208.729 22.2749 205.781 22.3882 203.853C22.5016 196.597 22.3882 191.495 22.3882 184.352C22.3882 177.095 22.3882 169.952 22.3882 162.696L22.1615 143.875C22.0481 142.287 21.5946 141.834 21.141 141.494L16.9459 138.092C15.6987 137.072 15.5854 136.618 15.5854 135.031L15.6987 131.063L234.071 84.5763L235.999 84.2362Z" fill="#201E1E"/>
<path fill-rule="evenodd" clip-rule="evenodd" d="M12.2967 130.042L12.4101 135.144L10.4826 137.639L18.5327 143.648C19.4397 144.555 19.5531 145.802 19.5531 147.163L19.6665 201.812C19.3264 205.214 19.3264 208.275 17.9658 210.543L10.2559 226.53L134.975 198.298L134.295 190.928L137.356 197.731L188.491 186.279C192.119 185.486 193.934 185.032 196.428 182.311C198.696 179.816 200.283 176.755 202.324 174.941C204.365 176.075 205.498 176.642 208.106 178.683C210.374 180.61 227.154 175.962 230.669 175.281C241.214 173.127 240.647 172.673 247.223 164.056C250.738 159.408 250.624 159.181 250.624 153.399C250.624 148.75 250.624 144.101 250.624 139.453C250.624 135.598 251.078 129.248 250.511 125.62C249.944 121.765 246.883 119.498 245.409 116.89L250.624 115.529C250.851 114.962 250.284 83.5558 250.397 81.2881V79.0205L12.2967 130.042ZM234.184 84.4628C236.338 84.1227 240.08 83.7825 241.894 85.71L247.109 89.9051V113.488L239.626 114.849C242.801 119.384 247.563 123.126 247.336 128.568C247.109 133.103 247.109 137.979 247.109 142.627C247.109 147.276 247.223 152.038 247.109 156.8C247.109 160.202 244.048 163.036 242.007 165.53C238.606 169.612 238.946 170.066 233.73 171.426C230.669 172.107 211.961 176.528 210.26 176.188C208.446 175.735 202.777 170.973 201.984 170.859C199.943 172.9 197.788 176.302 195.294 178.683C191.439 182.538 190.872 182.311 185.77 183.445L172.845 186.393C171.031 186.846 169.443 187.073 167.629 187.413C164.454 187.98 160.599 183.785 158.785 182.764C159.579 185.032 161.166 187.073 162.527 188.887L140.644 193.876C139.511 194.216 138.377 193.649 137.923 192.515L131.007 177.209L132.708 195.917L104.476 201.926L106.63 197.05L109.238 189.794L109.124 147.843L108.671 143.421L100.054 162.696C99.3735 164.283 99.1468 165.984 99.0334 166.778L99.3735 192.969L100.281 196.03L102.775 202.379L98.1264 203.286L72.2754 209.182C73.8628 206.234 76.6973 200.565 76.9241 196.824C77.0374 194.556 77.1508 192.288 77.1508 190.134C77.1508 188.093 77.1508 174.261 77.3776 168.592C77.3776 166.891 77.3776 166.437 77.0374 165.871C75.6769 163.716 70.3479 155.553 70.1212 158.501C69.781 163.376 69.3275 194.669 69.1007 194.896C69.1007 198.638 68.3071 200.112 67.1733 201.699L60.0302 211.11C59.6901 211.45 59.4633 211.677 58.783 211.903L16.7186 221.314L19.7799 214.058C20.9137 210.996 22.501 207.255 22.501 203.4C22.501 196.143 22.3877 191.495 22.3877 184.352L22.1609 144.555C22.1609 143.421 22.3877 142.514 20.6869 141.153L16.4918 137.639C15.5848 136.958 15.4714 135.825 15.5848 135.031L15.6982 131.063L234.184 84.4628Z" fill="#96989A"/>
<path fill-rule="evenodd" clip-rule="evenodd" d="M103.456 196.37C104.136 194.329 105.27 192.628 105.951 189.907C106.744 187.186 106.291 184.011 106.291 181.177C106.291 175.281 106.177 169.385 106.064 163.489L105.61 159.635C101.529 167.911 102.322 167.344 102.549 176.642C102.549 179.136 102.209 195.917 103.456 196.37Z" fill="#171516"/>
<path fill-rule="evenodd" clip-rule="evenodd" d="M63.999 210.656L68.3075 209.863L72.616 203.06C73.0695 202.379 73.8632 199.205 73.8632 197.958L74.5435 168.705L72.3892 166.097L71.2554 197.731C71.142 198.411 70.8019 200.565 70.4618 201.019C68.5343 205.214 66.4934 207.368 63.999 210.656Z" fill="#070809"/>
<path fill-rule="evenodd" clip-rule="evenodd" d="M70.5748 137.752C70.3481 136.958 70.4614 137.072 69.8945 136.618C70.1213 137.412 70.0079 137.298 70.5748 137.752Z" fill="#7C7C7B"/>
<path fill-rule="evenodd" clip-rule="evenodd" d="M78.398 158.387C78.1712 157.48 78.2846 157.707 77.8311 157.253L78.398 158.387Z" fill="#878787"/>
<path d="M159.807 216.552C159.92 217.232 159.807 217.912 159.353 218.479C158.9 219.046 158.333 219.5 157.539 219.613C156.745 219.84 155.952 219.727 155.385 219.386C154.704 219.046 154.251 218.479 154.138 217.912C154.024 217.232 154.138 216.552 154.591 215.985C155.045 215.418 155.612 214.965 156.405 214.851C157.199 214.624 157.879 214.738 158.559 215.078C159.24 215.418 159.58 215.985 159.807 216.552Z" fill="#373435" stroke="#373435" stroke-width="0.863965"/>
<path d="M182.596 195.123C182.936 196.256 182.596 197.164 181.916 198.184C181.235 198.978 180.328 199.545 179.194 199.885C177.947 200.111 176.927 199.998 175.906 199.545C174.886 198.978 174.206 198.184 173.979 197.164C173.865 196.823 173.865 196.483 173.865 196.256C171.598 196.71 169.784 198.297 168.31 200.905C167.063 203.399 166.609 205.78 167.176 207.935C168.083 212.13 171.484 213.49 177.267 212.243L185.43 210.316C185.43 212.016 184.297 213.15 182.029 213.604L176.02 214.964C172.278 215.871 169.217 215.985 166.609 215.531C163.208 214.851 161.053 212.924 160.373 209.862C160.033 208.048 160.26 206.234 160.94 204.307C161.96 201.472 163.775 199.091 166.269 197.164C168.763 195.123 171.484 193.875 174.546 193.195L177.834 192.401C178.854 192.175 179.875 192.288 180.895 192.855C181.802 193.422 182.482 194.216 182.596 195.123Z" fill="#373435" stroke="#373435" stroke-width="0.863965"/>
<path d="M210.715 193.082C211.509 196.824 210.715 200.338 208.107 203.853C205.726 207.141 202.552 209.295 198.81 210.089C195.975 210.769 193.594 210.543 191.667 209.522C189.853 208.502 188.492 206.688 188.039 204.307C187.699 203.06 187.699 201.586 188.039 199.998C188.379 198.524 188.832 197.05 189.626 195.803L196.769 194.102C195.749 195.463 194.955 196.937 194.501 198.638C194.048 200.452 194.048 202.039 194.388 203.513C194.615 204.76 195.182 205.781 195.862 206.461C196.769 207.368 197.789 207.595 199.037 207.368C201.078 206.914 202.552 205.214 203.685 202.379C204.592 199.885 204.933 197.731 204.479 195.69C204.139 194.102 203.345 192.969 202.098 192.288C200.964 191.608 199.49 191.495 197.676 191.948L181.803 195.463L183.39 191.154L198.243 187.866C201.304 187.186 203.799 187.186 205.953 187.866C208.561 188.773 210.035 190.474 210.715 193.082Z" fill="#373435" stroke="#373435" stroke-width="0.863965"/>
<path d="M251.985 195.35C251.872 197.05 250.511 198.184 248.017 198.751L242.235 200.112C240.421 200.452 239.4 200.225 239.173 199.205C239.06 198.864 239.173 198.411 239.173 197.844L240.421 190.701L233.618 200.338C233.164 201.699 232.484 202.493 231.577 202.719C231.35 202.719 231.123 202.833 231.01 202.833C229.876 202.946 229.196 202.493 228.969 201.472C228.856 201.019 228.856 200.679 228.856 200.112L229.989 189.907L222.733 202.833C222.28 203.967 221.599 204.76 220.352 204.987L217.291 205.667L219.218 187.073L210.941 188.887L212.415 184.578L222.733 182.311C224.094 181.971 225.001 182.311 225.227 183.218C225.227 183.558 225.227 184.011 225.227 184.578L224.094 194.669L229.536 185.712C230.103 184.692 230.556 184.011 230.897 183.558C231.577 182.991 232.37 182.651 233.504 182.424C233.844 182.311 234.185 182.311 234.638 182.424C235.205 182.651 235.659 183.104 235.772 183.785C235.885 184.125 235.885 184.692 235.659 185.145L234.865 193.422L240.307 186.393C241.101 185.372 241.554 184.692 241.781 184.465C242.235 184.011 242.915 183.785 243.822 183.558C244.162 183.445 244.616 183.445 245.069 183.671C245.863 183.898 246.316 184.465 246.43 185.145C246.543 185.599 246.543 186.052 246.43 186.619L244.729 197.05L251.985 195.35Z" fill="#373435" stroke="#373435" stroke-width="0.863965"/>
<path fill-rule="evenodd" clip-rule="evenodd" d="M139.057 108.386V108.953C139.738 109.066 139.738 109.066 140.078 109.86C141.552 113.148 141.438 148.296 140.758 153.852L140.304 153.512C139.738 152.832 139.964 153.399 139.851 152.378L138.037 146.596L126.359 110.994L113.773 113.715L114 136.731C114.113 143.081 114 149.43 114 155.666C114 162.809 115.361 186.959 113.773 192.062C113.66 192.742 112.526 194.329 111.959 195.463L127.492 192.062C125.678 185.032 126.245 177.322 126.245 170.066L126.585 147.616L131.234 162.242L140.645 189C145.066 188.207 150.169 186.959 154.477 185.939C153.23 173.014 153.91 156.687 154.024 143.534C154.024 136.278 153.91 129.135 153.91 121.879C153.91 113.148 152.89 111.674 156.518 104.871L156.291 104.645L139.057 108.386ZM168.877 101.583C166.836 102.037 165.929 102.604 164.455 104.304C161.847 107.479 158.899 109.974 159.012 113.942C159.012 119.157 158.786 154.986 158.786 168.818C158.786 176.415 158.786 175.054 164.228 179.93C165.588 180.837 167.403 182.424 170.124 181.744L188.038 177.889C190.532 177.322 190.646 177.095 192.687 174.487C194.047 172.787 195.521 170.973 196.882 169.272C199.716 165.644 199.263 165.417 199.263 159.068C199.263 150.337 199.376 141.494 199.376 132.65C199.376 123.919 198.923 115.416 199.263 106.572C199.376 102.037 198.356 102.15 194.727 99.2023C193.14 97.9551 192.12 96.7079 189.739 97.1614L168.877 101.583ZM185.317 111.221L185.09 164.17L173.185 166.437V113.828L185.317 111.221ZM39.8486 196.483V144.328L51.4135 141.72L51.6403 141.947L51.3001 193.989C47.4452 194.896 43.7036 195.576 39.8486 196.483ZM21.0273 133.557C22.5013 135.371 26.6964 137.298 26.583 140.36C25.5626 157.707 29.0774 198.751 25.4492 211.223C25.3358 212.13 23.6351 214.511 23.0682 215.531C31.7986 213.377 42.4564 211.903 50.7332 209.522C59.6904 207.935 64.5658 203.286 65.0193 193.876V141.04C65.0193 136.958 64.6791 133.557 63.2052 131.629L59.1235 127.661C58.5566 127.207 57.5361 126.074 55.3819 126.414L21.0273 133.557ZM210.147 93.3065C208.9 95.0072 207.766 96.0276 206.406 97.8417C201.871 103.624 204.478 119.044 204.138 127.094C204.252 130.949 204.478 131.403 205.725 133.103C209.354 136.618 210.601 138.432 213.889 137.752C216.043 137.298 219.785 136.391 223.3 135.484L229.649 133.897L229.422 153.625V153.852L218.084 156.233L218.197 144.668L204.138 147.503L203.798 164.397L211.508 171.766L233.617 166.551C235.431 165.87 236.452 164.737 237.472 163.83C244.955 154.873 243.255 158.161 243.141 150.451C243.141 143.875 243.028 137.072 243.141 130.496C243.255 124.94 242.915 125.62 241.214 123.466C240.193 122.445 238.946 120.745 237.586 119.384C237.019 118.59 234.751 118.477 233.617 118.704L217.857 122.445L217.971 103.624L229.762 101.13L229.422 112.808L243.141 109.633C242.801 108.726 243.368 92.6262 243.141 92.1726L237.812 87.9775C237.132 87.4106 235.772 87.4106 234.411 87.6374L212.188 92.1726C211.054 92.3994 210.601 92.6262 210.147 93.3065ZM97.5597 116.89L87.6955 147.389L87.4688 146.596L79.5321 121.312L64.5658 124.373C69.7813 134.804 73.863 146.142 77.8314 157.14C79.7589 161.562 81.4596 167.231 81.4596 168.818L81.3462 191.948C81.3462 202.153 80.6659 198.411 79.7589 202.493C79.8722 202.833 79.4187 202.833 80.3258 202.719L96.8794 198.864L97.1062 198.071C95.1787 195.009 94.9519 194.216 94.9519 189.794L94.8386 168.251C94.4984 162.356 95.1787 162.696 96.1991 159.181L112.753 113.828L97.5597 116.89Z" fill="#FBFBFB" stroke="#373435" stroke-width="0.863965"/>
<path d="M37.8078 110.767L25.9027 113.261L23.0682 117.683L16.6055 119.044L30.0978 99.0887L37.1275 97.6148L45.4043 112.808L39.6219 114.168L37.8078 110.767ZM36.5606 108.159L33.3859 101.923L28.1704 109.973L36.5606 108.159ZM66.4932 108.386L60.5974 109.633L56.6291 96.2542L54.815 110.88L49.1459 112.014L51.9804 94.3267L60.8242 92.5126L64.1122 103.511L71.1419 90.245L79.9856 88.4309L78.0581 105.892L72.5024 107.139L74.7701 92.3992L66.4932 108.386ZM84.0673 104.644L86.9019 86.9569L109.125 82.1949L108.671 85.1428L92.5709 88.5443L91.8906 92.5126L107.537 89.2246L106.97 92.1725L91.4371 95.5739L90.5301 100.336L107.991 96.5944L107.537 99.5423L84.0673 104.644ZM118.308 97.2746L112.186 98.6352L115.02 80.9477L128.286 77.9998C130.554 77.5463 132.368 77.3195 133.728 77.3195C135.089 77.3195 136.223 77.5463 137.13 77.9998C138.037 78.5667 138.604 79.3604 138.83 80.2674C139.171 81.628 138.604 82.9886 137.243 84.2358C135.996 85.483 133.728 86.5034 130.667 87.4105C131.574 87.6372 132.481 87.9774 133.275 88.4309C134.862 89.4513 136.903 90.9253 139.057 92.8528L132.368 94.2133C131.687 93.4197 130.327 92.2859 128.286 90.5851C127.266 89.7915 126.245 89.2246 125.225 89.1112C124.544 88.9978 123.524 89.1112 122.05 89.4513L119.556 89.9049L118.308 97.2746ZM120.009 87.2971L123.184 86.6168C126.585 85.9365 128.74 85.3696 129.76 84.9161C130.78 84.4626 131.574 83.8956 132.028 83.3287C132.595 82.7618 132.821 82.1949 132.708 81.628C132.595 81.0611 132.028 80.721 131.121 80.6076C130.44 80.6076 129.306 80.721 127.492 81.0611L120.689 82.5351L120.009 87.2971ZM142.119 92.1725L144.84 74.485L151.076 73.2378L148.241 90.9253L142.119 92.1725ZM174.432 79.1336L180.782 78.34C179.988 80.3808 178.401 82.1949 176.246 83.6689C173.979 85.1428 171.258 86.2767 167.969 86.9569C164.341 87.7506 161.393 87.7506 159.012 86.9569C156.745 86.2767 155.271 84.6893 154.817 82.4217C154.364 80.4942 154.817 78.6801 155.838 76.866C156.858 75.0519 158.559 73.4646 160.826 72.104C163.094 70.7434 165.702 69.723 168.536 69.1561C171.824 68.4758 174.546 68.3624 176.7 68.8159C178.967 69.3828 180.441 70.4033 181.122 71.9906L175.226 73.578C174.659 72.6709 173.979 72.104 172.958 71.8772C171.938 71.6505 170.577 71.7639 168.99 72.104C167.403 72.4441 165.815 73.011 164.455 73.9181C163.094 74.8251 162.187 75.959 161.507 77.3195C160.94 78.6801 160.713 80.0407 160.94 81.2879C161.28 82.5351 162.074 83.4421 163.321 83.8956C164.568 84.3492 166.155 84.4626 167.856 84.009C169.443 83.6689 170.804 83.102 172.051 82.3083C173.185 81.4013 174.092 80.3808 174.432 79.1336ZM203.231 75.3921L191.326 77.8864L188.378 82.3083L182.029 83.6689L195.521 63.7138L202.437 62.2398L210.828 77.5463L204.932 78.7935L203.231 75.3921ZM201.87 72.7843L198.696 66.5483L193.48 74.5984L201.87 72.7843ZM238.493 71.5371L232.71 72.7843L222.279 63.6004L220.465 75.3921L214.683 76.6392L217.517 58.9518L223.186 57.7046L233.731 67.0018L235.545 55.0968L241.327 53.8496L238.493 71.5371Z" fill="#FEFEFE"/>
</svg>
